# xmcd
# 
# Track frame offsets:
#     150
#     30217
#     54028
#     78479
#     95851
#     120834
#     144084
#     164692
#     182855
#     204720
#     220255
#     245233
# 
# Disc length: 3442
# 
# Revision: 1
# Processed by: cddbd v1.5.2PL0 Copyright (c) Steve Scherf et al.
# Submitted via: fre:ac v1.1rc1
# 
DISCID=a20d700c
DTITLE=Various Artist - My Dear Pianists
DYEAR=2009
DGENRE=J-Jazz
TTITLE0=鈴木良雄 with 小曽根真 - Persian Breeze
TTITLE1=鈴木良雄 with 野力泰一 - My Dear Friends
TTITLE2=鈴木良雄 with 山本剛 - Kisses On The Wind(キスは風にのって)
TTITLE3=鈴木良雄with 秋吉敏子 - I Know Who Loves You
TTITLE4=鈴木良雄 with ケイ赤城 - Roulette
TTITLE5=鈴木良雄 with イサオ ササキ - Some Other Time
TTITLE6=鈴木良雄 with 野力泰一 - Tancho(丹頂)
TTITLE7=鈴木良雄 with ケイ赤城 - Bluebell Song
TTITLE8=鈴木良雄 with 小曽根真 - September Guest
TTITLE9=鈴木良雄 with 山本剛 - The Moment
TTITLE10=鈴木良雄 with イサオ ササキ - Kesaran Pasaran
TTITLE11=鈴木良雄with 秋吉敏子 - Hope
EXTD=YEAR: 2009
EXTT0=
EXTT1=
EXTT2=
EXTT3=
EXTT4=
EXTT5=
EXTT6=
EXTT7=
EXTT8=
EXTT9=
EXTT10=
EXTT11=
PLAYORDER=
